<?xml version="1.0" encoding="UTF-8"?>
<svg xmlns="http://www.w3.org/2000/svg" version="1.1" width="150" height="150" viewBox="0 0 150 150"><rect x="0" y="0" width="150" height="150" fill="#ffffff"/><g transform="scale(4.545)"><g transform="translate(0,0)"><path fill-rule="evenodd" d="M9 0L9 1L8 1L8 2L9 2L9 3L8 3L8 4L10 4L10 3L11 3L11 2L10 2L10 1L12 1L12 3L13 3L13 4L11 4L11 5L10 5L10 7L11 7L11 8L6 8L6 9L5 9L5 8L0 8L0 9L1 9L1 10L0 10L0 14L1 14L1 19L0 19L0 20L1 20L1 19L2 19L2 20L3 20L3 21L4 21L4 23L5 23L5 25L7 25L7 24L9 24L9 25L8 25L8 27L9 27L9 28L8 28L8 33L9 33L9 30L12 30L12 31L14 31L14 30L15 30L15 31L16 31L16 32L17 32L17 33L19 33L19 32L20 32L20 33L21 33L21 32L22 32L22 33L23 33L23 32L24 32L24 33L26 33L26 31L27 31L27 32L28 32L28 33L29 33L29 31L28 31L28 30L29 30L29 29L30 29L30 30L31 30L31 31L30 31L30 32L31 32L31 33L32 33L32 32L31 32L31 31L32 31L32 30L31 30L31 29L33 29L33 28L31 28L31 27L32 27L32 26L33 26L33 24L32 24L32 26L29 26L29 25L30 25L30 24L31 24L31 23L32 23L32 22L33 22L33 21L32 21L32 20L31 20L31 19L32 19L32 18L33 18L33 17L32 17L32 16L31 16L31 15L32 15L32 14L33 14L33 13L31 13L31 15L30 15L30 13L29 13L29 10L28 10L28 8L27 8L27 9L26 9L26 8L24 8L24 7L25 7L25 6L24 6L24 7L23 7L23 5L24 5L24 4L23 4L23 3L25 3L25 2L23 2L23 3L22 3L22 1L21 1L21 0L18 0L18 1L20 1L20 2L19 2L19 3L17 3L17 1L15 1L15 0L14 0L14 1L13 1L13 0ZM23 0L23 1L24 1L24 0ZM13 2L13 3L14 3L14 4L15 4L15 5L13 5L13 7L12 7L12 5L11 5L11 7L12 7L12 8L11 8L11 9L10 9L10 11L11 11L11 12L10 12L10 13L9 13L9 14L8 14L8 15L6 15L6 14L7 14L7 13L8 13L8 12L7 12L7 11L9 11L9 9L8 9L8 10L7 10L7 9L6 9L6 10L5 10L5 11L4 11L4 10L3 10L3 9L2 9L2 10L3 10L3 11L4 11L4 12L3 12L3 13L4 13L4 12L5 12L5 11L6 11L6 12L7 12L7 13L5 13L5 14L2 14L2 15L4 15L4 16L5 16L5 19L4 19L4 18L2 18L2 19L4 19L4 21L5 21L5 19L6 19L6 20L7 20L7 21L6 21L6 22L5 22L5 23L6 23L6 24L7 24L7 23L9 23L9 24L10 24L10 23L12 23L12 22L11 22L11 20L10 20L10 23L9 23L9 19L8 19L8 18L7 18L7 17L6 17L6 16L8 16L8 17L9 17L9 18L10 18L10 16L8 16L8 15L11 15L11 16L12 16L12 17L13 17L13 18L11 18L11 19L12 19L12 20L14 20L14 22L16 22L16 23L17 23L17 24L15 24L15 25L14 25L14 26L16 26L16 25L17 25L17 24L18 24L18 25L20 25L20 24L21 24L21 25L22 25L22 26L23 26L23 25L24 25L24 24L23 24L23 23L26 23L26 24L27 24L27 23L28 23L28 24L30 24L30 23L29 23L29 22L30 22L30 21L31 21L31 20L30 20L30 19L31 19L31 16L30 16L30 15L29 15L29 13L28 13L28 15L29 15L29 17L28 17L28 16L26 16L26 15L25 15L25 16L24 16L24 14L23 14L23 13L25 13L25 14L26 14L26 13L27 13L27 12L28 12L28 11L27 11L27 10L25 10L25 12L24 12L24 10L23 10L23 12L21 12L21 14L17 14L17 16L16 16L16 17L15 17L15 15L14 15L14 13L15 13L15 14L16 14L16 13L17 13L17 12L18 12L18 13L20 13L20 12L19 12L19 11L22 11L22 10L19 10L19 11L17 11L17 10L18 10L18 9L19 9L19 8L20 8L20 9L22 9L22 8L21 8L21 7L22 7L22 5L23 5L23 4L22 4L22 3L21 3L21 2L20 2L20 3L19 3L19 4L21 4L21 7L20 7L20 5L18 5L18 6L17 6L17 3L15 3L15 2ZM8 5L8 7L9 7L9 5ZM15 5L15 6L14 6L14 8L13 8L13 9L11 9L11 10L12 10L12 12L13 12L13 13L10 13L10 14L12 14L12 16L13 16L13 17L14 17L14 18L13 18L13 19L14 19L14 20L16 20L16 19L17 19L17 18L18 18L18 19L19 19L19 18L20 18L20 20L22 20L22 21L18 21L18 20L17 20L17 21L16 21L16 22L17 22L17 21L18 21L18 22L20 22L20 23L19 23L19 24L20 24L20 23L21 23L21 24L22 24L22 25L23 25L23 24L22 24L22 23L21 23L21 22L28 22L28 21L30 21L30 20L28 20L28 21L23 21L23 18L24 18L24 20L26 20L26 19L25 19L25 18L27 18L27 19L30 19L30 17L29 17L29 18L28 18L28 17L23 17L23 14L21 14L21 16L20 16L20 15L18 15L18 16L17 16L17 17L16 17L16 18L15 18L15 17L14 17L14 16L13 16L13 13L14 13L14 12L13 12L13 9L14 9L14 11L16 11L16 12L17 12L17 11L16 11L16 10L17 10L17 9L18 9L18 8L17 8L17 6L16 6L16 5ZM15 6L15 7L16 7L16 6ZM18 6L18 7L19 7L19 6ZM14 8L14 9L15 9L15 10L16 10L16 9L15 9L15 8ZM29 8L29 9L30 9L30 8ZM31 8L31 10L33 10L33 9L32 9L32 8ZM6 10L6 11L7 11L7 10ZM30 11L30 12L31 12L31 11ZM2 16L2 17L3 17L3 16ZM18 16L18 17L20 17L20 16ZM21 16L21 19L22 19L22 18L23 18L23 17L22 17L22 16ZM6 18L6 19L7 19L7 18ZM14 18L14 19L15 19L15 18ZM0 21L0 25L1 25L1 22L2 22L2 21ZM6 22L6 23L7 23L7 22ZM13 23L13 24L11 24L11 25L10 25L10 26L11 26L11 28L9 28L9 29L12 29L12 30L14 30L14 29L12 29L12 28L14 28L14 27L13 27L13 24L14 24L14 23ZM2 24L2 25L3 25L3 24ZM11 25L11 26L12 26L12 25ZM25 25L25 28L28 28L28 25ZM18 26L18 27L15 27L15 28L16 28L16 29L15 29L15 30L16 30L16 29L17 29L17 32L18 32L18 31L20 31L20 32L21 32L21 29L22 29L22 30L23 30L23 31L24 31L24 32L25 32L25 30L28 30L28 29L24 29L24 27L22 27L22 28L20 28L20 26ZM26 26L26 27L27 27L27 26ZM18 27L18 28L17 28L17 29L18 29L18 28L19 28L19 30L20 30L20 28L19 28L19 27ZM29 27L29 28L30 28L30 29L31 29L31 28L30 28L30 27ZM22 28L22 29L23 29L23 28ZM10 31L10 33L11 33L11 31ZM12 32L12 33L15 33L15 32ZM0 0L0 7L7 7L7 0ZM1 1L1 6L6 6L6 1ZM2 2L2 5L5 5L5 2ZM26 0L26 7L33 7L33 0ZM27 1L27 6L32 6L32 1ZM28 2L28 5L31 5L31 2ZM0 26L0 33L7 33L7 26ZM1 27L1 32L6 32L6 27ZM2 28L2 31L5 31L5 28Z" fill="#000000"/></g></g></svg>
