<?xml version="1.0" encoding="UTF-8"?>
<svg xmlns="http://www.w3.org/2000/svg" version="1.1" width="150" height="150" viewBox="0 0 150 150"><rect x="0" y="0" width="150" height="150" fill="#ffffff"/><g transform="scale(4.545)"><g transform="translate(0,0)"><path fill-rule="evenodd" d="M8 0L8 1L10 1L10 2L12 2L12 1L13 1L13 0ZM14 0L14 2L13 2L13 4L14 4L14 2L15 2L15 0ZM18 0L18 1L16 1L16 2L18 2L18 3L17 3L17 4L19 4L19 5L16 5L16 4L15 4L15 5L14 5L14 7L15 7L15 5L16 5L16 8L17 8L17 9L16 9L16 10L17 10L17 9L18 9L18 10L20 10L20 13L19 13L19 14L18 14L18 17L17 17L17 18L16 18L16 17L15 17L15 16L17 16L17 15L15 15L15 14L17 14L17 13L18 13L18 12L19 12L19 11L18 11L18 12L17 12L17 13L15 13L15 14L12 14L12 16L10 16L10 15L9 15L9 14L11 14L11 13L10 13L10 12L9 12L9 11L8 11L8 12L6 12L6 13L5 13L5 14L4 14L4 15L7 15L7 14L6 14L6 13L8 13L8 12L9 12L9 14L8 14L8 15L9 15L9 16L8 16L8 17L9 17L9 19L8 19L8 20L6 20L6 21L5 21L5 18L3 18L3 17L2 17L2 16L3 16L3 15L1 15L1 14L0 14L0 15L1 15L1 16L0 16L0 18L1 18L1 17L2 17L2 19L3 19L3 20L4 20L4 21L2 21L2 22L4 22L4 23L5 23L5 22L6 22L6 23L7 23L7 24L6 24L6 25L7 25L7 24L8 24L8 26L9 26L9 24L10 24L10 22L11 22L11 24L12 24L12 22L13 22L13 25L12 25L12 27L13 27L13 26L14 26L14 28L13 28L13 29L12 29L12 28L11 28L11 30L12 30L12 31L10 31L10 32L9 32L9 29L10 29L10 28L9 28L9 29L8 29L8 33L10 33L10 32L13 32L13 31L14 31L14 33L18 33L18 31L17 31L17 30L16 30L16 29L14 29L14 28L15 28L15 26L17 26L17 27L18 27L18 30L19 30L19 29L22 29L22 30L21 30L21 31L19 31L19 33L22 33L22 32L23 32L23 29L24 29L24 30L25 30L25 31L24 31L24 32L27 32L27 33L28 33L28 32L30 32L30 33L31 33L31 32L30 32L30 31L28 31L28 29L29 29L29 27L30 27L30 29L31 29L31 31L32 31L32 32L33 32L33 31L32 31L32 28L31 28L31 27L30 27L30 26L31 26L31 25L30 25L30 24L29 24L29 23L28 23L28 19L29 19L29 21L30 21L30 22L31 22L31 24L32 24L32 25L33 25L33 24L32 24L32 23L33 23L33 21L31 21L31 20L30 20L30 18L31 18L31 19L32 19L32 20L33 20L33 19L32 19L32 18L33 18L33 16L31 16L31 14L32 14L32 13L30 13L30 14L28 14L28 15L27 15L27 14L26 14L26 18L27 18L27 19L25 19L25 18L24 18L24 17L25 17L25 15L24 15L24 16L23 16L23 15L21 15L21 17L20 17L20 19L21 19L21 18L22 18L22 20L21 20L21 21L20 21L20 20L19 20L19 18L18 18L18 17L19 17L19 16L20 16L20 13L21 13L21 14L22 14L22 13L21 13L21 11L24 11L24 10L26 10L26 11L25 11L25 12L26 12L26 11L27 11L27 13L29 13L29 12L28 12L28 11L31 11L31 12L32 12L32 11L33 11L33 8L32 8L32 9L31 9L31 8L28 8L28 9L26 9L26 8L25 8L25 4L24 4L24 8L23 8L23 6L22 6L22 4L23 4L23 3L24 3L24 2L25 2L25 1L24 1L24 0L23 0L23 2L22 2L22 4L21 4L21 5L20 5L20 4L19 4L19 1L21 1L21 0ZM8 2L8 5L9 5L9 6L8 6L8 7L9 7L9 8L8 8L8 9L9 9L9 10L10 10L10 9L9 9L9 8L10 8L10 7L11 7L11 6L10 6L10 3L9 3L9 2ZM12 5L12 7L13 7L13 5ZM9 6L9 7L10 7L10 6ZM17 6L17 7L18 7L18 6ZM19 6L19 9L21 9L21 8L22 8L22 9L23 9L23 8L22 8L22 6L21 6L21 8L20 8L20 6ZM0 8L0 11L1 11L1 9L2 9L2 10L3 10L3 9L4 9L4 8ZM6 8L6 9L5 9L5 10L4 10L4 11L2 11L2 12L0 12L0 13L4 13L4 11L5 11L5 10L6 10L6 11L7 11L7 10L6 10L6 9L7 9L7 8ZM12 8L12 9L11 9L11 12L13 12L13 13L14 13L14 12L16 12L16 11L14 11L14 10L15 10L15 9L14 9L14 10L13 10L13 8ZM24 8L24 9L25 9L25 8ZM28 9L28 10L27 10L27 11L28 11L28 10L31 10L31 11L32 11L32 10L31 10L31 9ZM12 10L12 11L13 11L13 10ZM13 15L13 16L15 16L15 15ZM29 15L29 16L30 16L30 15ZM4 16L4 17L7 17L7 16ZM9 16L9 17L10 17L10 16ZM12 17L12 18L11 18L11 20L10 20L10 21L9 21L9 22L8 22L8 21L6 21L6 22L7 22L7 23L9 23L9 22L10 22L10 21L11 21L11 20L12 20L12 21L14 21L14 23L15 23L15 25L17 25L17 26L19 26L19 25L20 25L20 26L21 26L21 27L22 27L22 28L24 28L24 27L23 27L23 26L24 26L24 24L28 24L28 23L26 23L26 22L25 22L25 23L24 23L24 24L23 24L23 25L22 25L22 23L23 23L23 22L22 22L22 23L21 23L21 22L19 22L19 24L18 24L18 23L17 23L17 22L18 22L18 21L17 21L17 22L16 22L16 21L15 21L15 20L17 20L17 19L18 19L18 18L17 18L17 19L15 19L15 20L14 20L14 18L13 18L13 17ZM27 17L27 18L28 18L28 17ZM31 17L31 18L32 18L32 17ZM6 18L6 19L7 19L7 18ZM23 18L23 19L24 19L24 20L22 20L22 21L24 21L24 20L25 20L25 19L24 19L24 18ZM12 19L12 20L13 20L13 19ZM26 20L26 21L27 21L27 20ZM0 21L0 22L1 22L1 21ZM1 23L1 24L0 24L0 25L1 25L1 24L3 24L3 25L5 25L5 24L3 24L3 23ZM17 24L17 25L18 25L18 24ZM20 24L20 25L21 25L21 24ZM25 25L25 28L28 28L28 25ZM10 26L10 27L11 27L11 26ZM26 26L26 27L27 27L27 26ZM19 27L19 28L20 28L20 27ZM26 29L26 30L27 30L27 29ZM14 30L14 31L15 31L15 30ZM21 31L21 32L22 32L22 31ZM27 31L27 32L28 32L28 31ZM0 0L0 7L7 7L7 0ZM1 1L1 6L6 6L6 1ZM2 2L2 5L5 5L5 2ZM26 0L26 7L33 7L33 0ZM27 1L27 6L32 6L32 1ZM28 2L28 5L31 5L31 2ZM0 26L0 33L7 33L7 26ZM1 27L1 32L6 32L6 27ZM2 28L2 31L5 31L5 28Z" fill="#000000"/></g></g></svg>
