<?xml version="1.0" encoding="UTF-8"?>
<svg xmlns="http://www.w3.org/2000/svg" version="1.1" width="150" height="150" viewBox="0 0 150 150"><rect x="0" y="0" width="150" height="150" fill="#ffffff"/><g transform="scale(4.054)"><g transform="translate(0,0)"><path fill-rule="evenodd" d="M9 0L9 1L8 1L8 2L9 2L9 3L8 3L8 4L10 4L10 7L11 7L11 4L12 4L12 5L13 5L13 6L12 6L12 9L13 9L13 8L14 8L14 9L15 9L15 10L17 10L17 11L16 11L16 13L12 13L12 11L13 11L13 10L11 10L11 12L10 12L10 11L9 11L9 13L10 13L10 14L11 14L11 13L12 13L12 14L13 14L13 15L12 15L12 17L13 17L13 16L14 16L14 17L15 17L15 18L17 18L17 17L18 17L18 18L20 18L20 20L19 20L19 19L18 19L18 20L17 20L17 19L16 19L16 20L17 20L17 21L18 21L18 22L20 22L20 20L22 20L22 21L21 21L21 23L20 23L20 25L19 25L19 26L15 26L15 27L14 27L14 28L15 28L15 29L12 29L12 27L13 27L13 26L11 26L11 29L10 29L10 28L9 28L9 25L11 25L11 24L10 24L10 23L11 23L11 21L12 21L12 22L13 22L13 23L12 23L12 25L13 25L13 24L14 24L14 25L18 25L18 24L17 24L17 23L16 23L16 21L12 21L12 19L13 19L13 18L11 18L11 17L10 17L10 16L11 16L11 15L10 15L10 16L8 16L8 15L7 15L7 14L8 14L8 9L11 9L11 8L6 8L6 9L7 9L7 10L6 10L6 11L7 11L7 12L5 12L5 10L4 10L4 11L1 11L1 12L0 12L0 13L1 13L1 15L0 15L0 18L1 18L1 19L0 19L0 20L2 20L2 21L0 21L0 22L1 22L1 24L0 24L0 29L1 29L1 26L3 26L3 27L4 27L4 28L3 28L3 29L8 29L8 31L10 31L10 32L8 32L8 37L9 37L9 36L10 36L10 37L12 37L12 35L13 35L13 34L11 34L11 33L10 33L10 32L11 32L11 29L12 29L12 30L13 30L13 31L12 31L12 33L13 33L13 32L14 32L14 33L19 33L19 34L18 34L18 35L19 35L19 34L20 34L20 35L21 35L21 36L22 36L22 37L28 37L28 36L29 36L29 35L30 35L30 37L32 37L32 36L34 36L34 37L37 37L37 30L35 30L35 28L34 28L34 27L36 27L36 28L37 28L37 26L36 26L36 25L37 25L37 22L36 22L36 21L37 21L37 18L36 18L36 17L37 17L37 14L36 14L36 13L35 13L35 12L34 12L34 11L35 11L35 9L36 9L36 8L35 8L35 9L34 9L34 8L33 8L33 9L34 9L34 11L33 11L33 12L31 12L31 11L32 11L32 10L30 10L30 8L29 8L29 4L28 4L28 5L26 5L26 7L27 7L27 8L24 8L24 9L23 9L23 8L22 8L22 7L23 7L23 5L25 5L25 4L27 4L27 3L24 3L24 2L20 2L20 4L19 4L19 2L18 2L18 3L17 3L17 2L16 2L16 4L12 4L12 2L13 2L13 1L11 1L11 2L10 2L10 0ZM15 0L15 1L17 1L17 0ZM19 0L19 1L20 1L20 0ZM21 0L21 1L22 1L22 0ZM23 0L23 1L24 1L24 0ZM26 0L26 1L25 1L25 2L26 2L26 1L27 1L27 2L28 2L28 3L29 3L29 0L28 0L28 1L27 1L27 0ZM14 2L14 3L15 3L15 2ZM10 3L10 4L11 4L11 3ZM21 3L21 4L20 4L20 5L18 5L18 6L17 6L17 7L16 7L16 6L15 6L15 7L14 7L14 6L13 6L13 7L14 7L14 8L15 8L15 7L16 7L16 9L17 9L17 8L18 8L18 9L20 9L20 10L18 10L18 11L17 11L17 12L18 12L18 13L16 13L16 14L19 14L19 16L18 16L18 15L16 15L16 17L17 17L17 16L18 16L18 17L20 17L20 18L21 18L21 19L22 19L22 20L23 20L23 21L24 21L24 22L23 22L23 23L22 23L22 24L21 24L21 26L19 26L19 27L22 27L22 26L23 26L23 29L22 29L22 28L20 28L20 29L22 29L22 30L21 30L21 31L25 31L25 32L27 32L27 31L28 31L28 30L26 30L26 29L24 29L24 28L26 28L26 26L28 26L28 25L25 25L25 26L23 26L23 24L26 24L26 23L27 23L27 24L29 24L29 25L30 25L30 26L29 26L29 28L30 28L30 26L31 26L31 28L32 28L32 27L33 27L33 25L34 25L34 26L35 26L35 25L34 25L34 24L36 24L36 23L35 23L35 22L33 22L33 21L34 21L34 20L36 20L36 19L35 19L35 17L36 17L36 14L35 14L35 15L34 15L34 13L30 13L30 12L29 12L29 13L30 13L30 14L31 14L31 15L32 15L32 14L33 14L33 15L34 15L34 16L33 16L33 17L32 17L32 16L31 16L31 17L30 17L30 16L28 16L28 15L27 15L27 14L28 14L28 13L27 13L27 14L26 14L26 13L25 13L25 12L26 12L26 10L29 10L29 11L30 11L30 10L29 10L29 8L27 8L27 9L24 9L24 10L23 10L23 9L22 9L22 8L21 8L21 9L20 9L20 8L19 8L19 7L20 7L20 5L23 5L23 4L22 4L22 3ZM16 4L16 5L17 5L17 4ZM8 5L8 7L9 7L9 5ZM18 6L18 7L19 7L19 6ZM21 6L21 7L22 7L22 6ZM24 6L24 7L25 7L25 6ZM27 6L27 7L28 7L28 6ZM0 8L0 10L3 10L3 9L5 9L5 8ZM31 8L31 9L32 9L32 8ZM20 10L20 11L19 11L19 12L20 12L20 13L19 13L19 14L20 14L20 13L21 13L21 16L20 16L20 17L21 17L21 16L22 16L22 17L23 17L23 18L22 18L22 19L23 19L23 20L25 20L25 21L26 21L26 22L25 22L25 23L26 23L26 22L27 22L27 23L29 23L29 24L30 24L30 25L31 25L31 24L32 24L32 25L33 25L33 24L34 24L34 23L33 23L33 22L32 22L32 23L31 23L31 22L30 22L30 21L33 21L33 20L34 20L34 19L33 19L33 20L30 20L30 21L28 21L28 22L27 22L27 20L28 20L28 18L30 18L30 17L28 17L28 18L26 18L26 16L25 16L25 15L26 15L26 14L25 14L25 15L24 15L24 16L23 16L23 14L24 14L24 13L23 13L23 11L22 11L22 10ZM24 10L24 11L25 11L25 10ZM36 10L36 11L37 11L37 10ZM14 11L14 12L15 12L15 11ZM27 11L27 12L28 12L28 11ZM2 12L2 14L3 14L3 15L4 15L4 16L3 16L3 17L4 17L4 19L5 19L5 20L4 20L4 21L3 21L3 22L4 22L4 23L3 23L3 24L1 24L1 25L3 25L3 24L4 24L4 23L5 23L5 25L4 25L4 27L5 27L5 26L7 26L7 25L8 25L8 23L9 23L9 21L11 21L11 20L10 20L10 19L11 19L11 18L10 18L10 17L8 17L8 16L7 16L7 15L4 15L4 14L5 14L5 12ZM21 12L21 13L22 13L22 14L23 14L23 13L22 13L22 12ZM3 13L3 14L4 14L4 13ZM6 13L6 14L7 14L7 13ZM14 15L14 16L15 16L15 15ZM1 16L1 18L2 18L2 20L3 20L3 18L2 18L2 16ZM5 16L5 17L7 17L7 18L6 18L6 19L8 19L8 17L7 17L7 16ZM34 16L34 17L33 17L33 18L34 18L34 17L35 17L35 16ZM24 17L24 18L23 18L23 19L25 19L25 20L26 20L26 18L25 18L25 17ZM9 18L9 19L10 19L10 18ZM14 19L14 20L15 20L15 19ZM5 20L5 21L4 21L4 22L5 22L5 23L7 23L7 22L5 22L5 21L7 21L7 20ZM8 20L8 21L9 21L9 20ZM18 20L18 21L19 21L19 20ZM29 22L29 23L30 23L30 24L31 24L31 23L30 23L30 22ZM14 23L14 24L16 24L16 23ZM6 24L6 25L7 25L7 24ZM6 27L6 28L8 28L8 29L9 29L9 30L10 30L10 29L9 29L9 28L8 28L8 27ZM15 27L15 28L18 28L18 27ZM27 27L27 29L28 29L28 27ZM15 29L15 30L17 30L17 29ZM23 29L23 30L24 30L24 29ZM29 29L29 32L32 32L32 29ZM33 29L33 30L34 30L34 29ZM18 30L18 31L17 31L17 32L19 32L19 33L21 33L21 34L23 34L23 35L22 35L22 36L24 36L24 35L25 35L25 36L28 36L28 35L29 35L29 34L30 34L30 35L31 35L31 36L32 36L32 35L34 35L34 36L36 36L36 35L35 35L35 33L36 33L36 32L35 32L35 31L34 31L34 32L33 32L33 33L34 33L34 34L30 34L30 33L28 33L28 35L25 35L25 34L26 34L26 33L24 33L24 32L23 32L23 33L22 33L22 32L20 32L20 30ZM25 30L25 31L26 31L26 30ZM30 30L30 31L31 31L31 30ZM14 31L14 32L16 32L16 31ZM34 32L34 33L35 33L35 32ZM9 33L9 34L10 34L10 33ZM23 33L23 34L24 34L24 33ZM15 34L15 35L14 35L14 36L15 36L15 37L20 37L20 36L15 36L15 35L16 35L16 34ZM10 35L10 36L11 36L11 35ZM0 0L0 7L7 7L7 0ZM1 1L1 6L6 6L6 1ZM2 2L2 5L5 5L5 2ZM30 0L30 7L37 7L37 0ZM31 1L31 6L36 6L36 1ZM32 2L32 5L35 5L35 2ZM0 30L0 37L7 37L7 30ZM1 31L1 36L6 36L6 31ZM2 32L2 35L5 35L5 32Z" fill="#000000"/></g></g></svg>
